# xmcd
#
# Track frame offsets: 
#        150
#        19765
#        37825
#        55350
#        76382
#        98250
#        117725
#        141987
#        160040
#        176212
#
# Disc length: 2682 seconds
#
# Revision: 1
# Processed by: cddbd v1.5.2PL0 Copyright (c) Steve Scherf et al.
# Submitted via: ExactAudioCopyFreeDBPlugin 1.0
#
DISCID=7c0a780a
DTITLE=E.M.U - E.M.U 1stアルブム Girl
DYEAR=1996
DGENRE=JPop
TTITLE0=Teenageはパラダイス
TTITLE1=僕たちの方程式〜rule〜
TTITLE2=置鮎龍太郎 - 噂のRock☆Star
TTITLE3=石川英郎 - 勇／OTOKOGI
TTITLE4=少年A to Z
TTITLE5=阪口大助 - 僕だって男だぞ
TTITLE6=林延年 - R＆R Beethoven
TTITLE7=緑川光 - 翼なき世代
TTITLE8=青春に理由はいらない
TTITLE9=Girl〜涙が虹に変わるまで〜
EXTD=YEAR: 1996
EXTT0=
EXTT1=
EXTT2=
EXTT3=
EXTT4=
EXTT5=
EXTT6=
EXTT7=
EXTT8=
EXTT9=
PLAYORDER=
